<!DOCTYPE svg PUBLIC "-//W3C//DTD SVG 1.1//EN" "http://www.w3.org/Graphics/SVG/1.1/DTD/svg11.dtd">
<!-- Uploaded to: SVG Repo, www.svgrepo.com, Transformed by: SVG Repo Mixer Tools -->
<svg version="1.1" id="Layer_1" xmlns="http://www.w3.org/2000/svg" xmlns:xlink="http://www.w3.org/1999/xlink" viewBox="0 0 508.1 508.1" xml:space="preserve" width="800px" height="800px" fill="#000000">
<g id="SVGRepo_bgCarrier" stroke-width="0"/>
<g id="SVGRepo_tracerCarrier" stroke-linecap="round" stroke-linejoin="round"/>
<g id="SVGRepo_iconCarrier"> <path style="fill:#FFD15C;" d="M33.8,216.251v270.6c0,11.7,9.5,21.2,21.2,21.2h398.1c11.7,0,21.2-9.5,21.2-21.2v-270.6H33.8z"/> <path style="fill:#F1543F;" d="M377.9,14.551c-19-18.7-49.1-19.4-67.2-1.6c-12.6,12.3-44.7,58.5-56.7,91.8 c-12-33.3-44.1-79.5-56.7-91.8c-18.1-17.8-48.2-17.1-67.2,1.6s-19.8,48.3-1.7,66.1c17.9,17.5,104.9,73.6,125.6,57.2 c20.7,16.4,107.7-39.7,125.6-57.2C397.7,62.851,396.9,33.251,377.9,14.551z M151.9,57.551c-5.1-5-4.4-14,1.7-19.9 c4.4-4.3,9.2-5,11.7-5c2.4,0,5.8,0.6,8.6,3.3c9.9,9.8,29,38.5,40.9,61.8C191.2,86.051,161.9,67.351,151.9,57.551z M356.1,57.551 c-9.9,9.8-39.2,28.5-62.9,40.2c12-23.2,31-52,40.9-61.8c2.8-2.7,6.2-3.3,8.6-3.3c2.5,0,7.3,0.6,11.7,5 C360.4,43.551,361.2,52.551,356.1,57.551z"/> <path style="fill:#F8B64C;" d="M486.8,118.351H21.2c-11.7,0-21.2,9.5-21.2,21.2v55.4c0,11.7,9.5,21.2,21.2,21.2h465.7 c11.7,0,21.2-9.5,21.2-21.2v-55.4C508,127.851,498.5,118.351,486.8,118.351z"/> <rect x="202.7" y="118.351" style="fill:#FF7058;" width="102.7" height="389.7"/> <rect x="33.8" y="216.251" style="opacity:0.2;fill:#C47920;enable-background:new ;" width="440.4" height="14.1"/> </g>
</svg>